<svg xmlns="http://www.w3.org/2000/svg" viewBox="0 0 512 512">
    <defs>
        <linearGradient id="cyber-grad" x1="0%" y1="0%" x2="100%" y2="100%">
            <stop offset="0%" stop-color="#38bdf8" />
            <stop offset="50%" stop-color="#3b82f6" />
            <stop offset="100%" stop-color="#6366f1" />
        </linearGradient>
        <linearGradient id="neon-grad" x1="100%" y1="0%" x2="0%" y2="100%">
            <stop offset="0%" stop-color="#f472b6" />
            <stop offset="100%" stop-color="#ec4899" />
        </linearGradient>
        <filter id="glow" x="-20%" y="-20%" width="140%" height="140%">
            <feGaussianBlur stdDeviation="15" result="blur" />
            <feComposite in="SourceGraphic" in2="blur" operator="over" />
        </filter>
        <linearGradient id="glass" x1="0%" y1="0%" x2="100%" y2="100%">
            <stop offset="0%" stop-color="#ffffff" stop-opacity="0.8" />
            <stop offset="100%" stop-color="#ffffff" stop-opacity="0.2" />
        </linearGradient>
    </defs>

    <!-- Outer Ring Base -->
    <rect x="30" y="30" width="452" height="452" rx="100" fill="url(#cyber-grad)" />

    <!-- Inner Drop Layer -->
    <rect x="70" y="70" width="372" height="372" rx="80" fill="#0f172a" />

    <!-- Fluid Printer Elements -->
    <path d="M140 280 Q 256 160 372 280 Q 300 380 256 380 Q 212 380 140 280 Z" fill="url(#neon-grad)" />
    <path d="M120 230 C 180 100 332 100 392 230 C 370 260 256 312 256 312 C 256 312 142 260 120 230 Z" fill="url(#glass)" />

    <!-- Pulse Core -->
    <circle cx="256" cy="220" r="45" fill="#ffffff" filter="url(#glow)" />
</svg>
